
Boyz n the Hood is a 1991 American hood film written and directed by John singleton.Starring Cuba Gooding, Jr., Ice Cube, Laurence Fishburne, Morris Chestnut,Nia Long, Angela Bassett and Regina King, the film depicts life in poor South Central (now South) Los Angeles, California and was filmed and released in the summer of 1991.It was nominated for both Best Director and Original Screenplay during the 1991 AcademyAwards, making Singleton the youngest person ever nominated for Best Director and the first African–American to be nominated for the award.
The film was screened in the Un Certain Regard section at the 1991 Cannes Film Festival.In 2002, the United States Library of Congress deemed the film "culturally significant" and selected it for preservation in the National Film

 
http://www.imdb.com/title/tt0101507/


Format : AVI
Format/Info : Audio Video Interleave
File size : 696 MiB
Duration : 50mn 50s
Overall bit rate : 1 914 Kbps
Writing application : Nandub v1.0rc2
Writing library : Nandub build 1853/release

Video
ID : 0
Format : MPEG-4 Visual
Format settings, BVOP : Yes
Format settings, QPel : No
Format settings, GMC : No warppoints
Format settings, Matrix : Default (H.263)
Codec ID : XVID
Codec ID/Hint : XviD
Duration : 50mn 50s
Bit rate : 1 719 Kbps
Width : 576 pixels
Height : 304 pixels
Display aspect ratio : 1.895
Frame rate : 23.976 fps
Color space : YUV
Chroma subsampling : 4:2:0
Bit depth : 8 bits
Scan type : Progressive
Bits/(Pixel*Frame) : 0.409
Stream size : 625 MiB (90%)

Audio
ID : 1
Format : MPEG Audio
Format version : Version 1
Format profile : Layer 3
Mode : Joint stereo
Mode extension : MS Stereo
Codec ID : 55
Codec ID/Hint : MP3
Duration : 50mn 50s
Bit rate mode : Variable
Bit rate : 182 Kbps
Nominal bit rate : 192 Kbps
Channel(s) : 2 channels
Sampling rate : 48.0 KHz
Stream size : 66.3 MiB (10%)
Alignment : Aligned on interleaves
Interleave, duration : 24 ms (0.58 video frame)
Interleave, preload duration : 467 ms
Writing library : LAME3.92
Encoding settings : -m j -V 0 -q 2 -lowpass 19.3 --abr 192